<svg width="9" height="15" viewBox="0 0 9 15" fill="none" xmlns="http://www.w3.org/2000/svg">
<path d="M6.71353 13.9459L0.745817 7.99587C0.674983 7.92503 0.624928 7.8483 0.59565 7.76566C0.5659 7.68302 0.551025 7.59448 0.551025 7.50003C0.551025 7.40559 0.5659 7.31705 0.59565 7.23441C0.624928 7.15177 0.674983 7.07503 0.745817 7.0042L6.71353 1.03649C6.8788 0.871213 7.0854 0.788574 7.33332 0.788574C7.58123 0.788574 7.79373 0.877116 7.97082 1.0542C8.1479 1.23128 8.23644 1.43788 8.23644 1.67399C8.23644 1.9101 8.1479 2.1167 7.97082 2.29378L2.76457 7.50003L7.97082 12.7063C8.13609 12.8716 8.21873 13.0751 8.21873 13.3169C8.21873 13.5591 8.13019 13.7688 7.95311 13.9459C7.77602 14.1229 7.56943 14.2115 7.33332 14.2115C7.09721 14.2115 6.89061 14.1229 6.71353 13.9459Z" fill="#121212"/>
</svg>
