<svg width="17" height="17" viewBox="0 0 17 17" fill="none" xmlns="http://www.w3.org/2000/svg">
<path d="M5.06458 14.9458C4.88749 14.7687 4.79895 14.559 4.79895 14.3168C4.79895 14.075 4.88749 13.8655 5.06458 13.6885L10.2531 8.49992L5.04687 3.29367C4.88159 3.12839 4.79895 2.92179 4.79895 2.67388C4.79895 2.42596 4.88749 2.21346 5.06458 2.03638C5.24166 1.85929 5.45133 1.77075 5.69358 1.77075C5.93535 1.77075 6.14478 1.85929 6.32187 2.03638L12.2719 8.00409C12.3427 8.07492 12.393 8.15165 12.4227 8.23429C12.452 8.31693 12.4667 8.40547 12.4667 8.49992C12.4667 8.59436 12.452 8.6829 12.4227 8.76554C12.393 8.84818 12.3427 8.92492 12.2719 8.99575L6.30416 14.9635C6.13888 15.1287 5.93535 15.2114 5.69358 15.2114C5.45133 15.2114 5.24166 15.1228 5.06458 14.9458Z" fill="black"/>
</svg>
